<svg xmlns="http://www.w3.org/2000/svg" width="512" height="512" viewBox="0 0 512 512"><g transform="rotate(-3 256 256)"><g transform="translate(7,9)"><rect x="20" y="20" width="472" height="472" rx="128" fill="rgba(0,0,0,0.20)"/></g><rect x="20" y="20" width="472" height="472" rx="128" fill="#ffffff"/><rect x="58" y="58" width="396" height="396" rx="98" fill="hsl(345,95%,58%)"/></g><g transform="rotate(-3 256 256)"><g transform="translate(4,6)"><g transform="translate(88,88) scale(14)"><circle cx="12" cy="13.5" r="6.5" fill="rgba(0,0,0,0.3)"/><circle cx="8.8" cy="9.6" r="2.7" fill="rgba(0,0,0,0.3)"/><circle cx="15.2" cy="9.6" r="2.7" fill="rgba(0,0,0,0.3)"/><circle cx="8.8" cy="9.6" r="1.1" fill="rgba(0,0,0,0.3)"/><circle cx="15.2" cy="9.6" r="1.1" fill="rgba(0,0,0,0.3)"/><path d="M8.5 15.5q3.5 2.6 7 0" fill="none" stroke="rgba(0,0,0,0.3)" stroke-width="1.3" stroke-linecap="round"/></g></g><g transform="translate(88,88) scale(14)"><circle cx="12" cy="13.5" r="6.5" fill="#ffffff"/><circle cx="8.8" cy="9.6" r="2.7" fill="#ffffff"/><circle cx="15.2" cy="9.6" r="2.7" fill="#ffffff"/><circle cx="8.8" cy="9.6" r="1.1" fill="rgba(0,0,0,0.3)"/><circle cx="15.2" cy="9.6" r="1.1" fill="rgba(0,0,0,0.3)"/><path d="M8.5 15.5q3.5 2.6 7 0" fill="none" stroke="rgba(0,0,0,0.3)" stroke-width="1.3" stroke-linecap="round"/></g></g></svg>
